<svg xmlns="http://www.w3.org/2000/svg" width="18.5" height="21.5"><g fill="none" stroke-linecap="round" stroke-linejoin="round" stroke-miterlimit="10" stroke-width="1.5"><path d="M.75 12.54v-.22a3.6 3.6 0 01.6-1.82 4.87 4.87 0 001.2-2.31c0-.67 0-1.35.06-2.01C2.9 2.97 6.08.75 9.2.75h.08c3.13 0 6.3 2.22 6.62 5.43.05.66 0 1.34.04 2a4.96 4.96 0 001.2 2.33 3.5 3.5 0 01.6 1.8v.22a3.57 3.57 0 01-.84 2.39 4.5 4.5 0 01-2.86 1.37 45.08 45.08 0 01-9.62 0 4.55 4.55 0 01-2.84-1.37 3.6 3.6 0 01-.84-2.38z" stroke="#f6f6f7"/><path d="M6.8 19.6a3.06 3.06 0 002.04 1.13 3.09 3.09 0 002.25-.63 2.89 2.89 0 00.53-.5" stroke="#6f7686"/></g></svg>