<svg xmlns="http://www.w3.org/2000/svg" width="16" height="12.235" viewBox="0 0 16 12.235">
  <defs>
    <style>
      .cls-1 {
        fill: #f6f6f7;
      }
    </style>
  </defs>
  <path id="Pfad_9" data-name="Pfad 9" class="cls-1" d="M23.152,12.122a3.969,3.969,0,0,0-.635-1.728,2.186,2.186,0,0,0-1.6-.736c-2.239-.176-5.6-.176-5.6-.176h-.007s-3.358,0-5.6.176a2.188,2.188,0,0,0-1.6.736,3.982,3.982,0,0,0-.635,1.728s-.16,1.408-.16,2.815v1.32c0,1.409.16,2.816.16,2.816A3.956,3.956,0,0,0,8.108,20.8a2.587,2.587,0,0,0,1.764.743c1.28.134,5.44.176,5.44.176s3.362-.006,5.6-.181a2.2,2.2,0,0,0,1.6-.737,3.973,3.973,0,0,0,.635-1.726s.16-1.408.16-2.816v-1.32C23.312,13.53,23.152,12.122,23.152,12.122Zm-9.838,6.536V12.541l5,3.059Z" transform="translate(-7.312 -9.482)"/>
</svg>
